<?xml version="1.0" encoding="utf-8"?>
<!-- Generator: Adobe Illustrator 22.0.0, SVG Export Plug-In . SVG Version: 6.00 Build 0)  -->
<svg version="1.1" id="Layer_1" xmlns="http://www.w3.org/2000/svg" xmlns:xlink="http://www.w3.org/1999/xlink" x="0px" y="0px"
	 width="1400px" height="980px" viewBox="0 0 1400 980" style="enable-background:new 0 0 1400 980;" xml:space="preserve">
<style type="text/css">
	.st0{fill:#3B4E5E;}
	.st1{fill:#DEA635;}
	.st2{fill:#F5CA40;}
	.st3{fill:#BA2B1B;}
	.st4{fill:#F86251;}
	.st5{fill:#6DB3A9;}
	.st6{fill:#92E2D9;}
	.st7{fill:#C64281;}
	.st8{fill:#FA76AF;}
	.st9{fill:#527FA8;}
	.st10{fill:#79A4C7;}
	.st11{fill:#5366A5;}
	.st12{fill:#7B8FC6;}
</style>
<rect class="st0" width="1400" height="980"/>
<g>
	<g>
		<path class="st1" d="M535,519c0.6-0.8,1.3-1.5,2-2.1l19.5-17.5c0,0,15.2,2.6,27.9,12.6c0,0-20.8-55,6.3-94.6c2.7-4,6-7.9,9.8-11.5
			c0,0,55.6-59.4,108,0.6L692.7,429c0,0-17.4-38.5-83.9-22.6c-0.9,0.2-1.7,0.5-2.6,0.9c0,0,0,0,0,0c-3.9,1.7-7.2,5.1-9,9.6
			c-4.6,11-7.4,33.9,7.5,79.6c0,0,7.2,22.3,4,30.8c-0.3,0.9-0.8,1.6-1.3,2.1L591,545.3c0,0-3.1,3.2-11.1-3c0,0-17-12.9-31.5-21.5
			l0,0c0.3,1.1,18.1,73.9-3.5,207.1c0,0-1.3,8.4-4.3,22.3c0,0,0,0,0,0c-5.1,23.6-15.3,62.9-32.9,103.7l-16.4,4.7
			c0,0,15.5-17,28.8-51.9c0,0,0,0,0,0c14.3-37.4,26.1-95.2,13.7-174.4C533.8,632.4,517.3,541.1,535,519z"/>
		<path class="st2" d="M535,519c0.6-0.8,1.3-1.5,2-2.1l19.5-17.5c0,0,15.2,2.6,27.9,12.6c0,0,21,16.4,24.2,15.2
			c-0.3,0.9-0.8,1.6-1.3,2.1L591,545.3c0,0-3.1,3.2-11.1-3c0,0-17-12.9-31.5-21.5C548.4,520.8,541.3,516.4,535,519z"/>
		<path class="st2" d="M491.3,858.7c0,0,15.5-17,28.8-51.9c0,0,0,0,0,0c0.3-0.6,14.6-33.7,20.5-56.5c-5.1,23.6-15.3,62.9-32.9,103.7
			L491.3,858.7z"/>
		<path class="st2" d="M590.8,417.4c2.7-4,6-7.9,9.8-11.5c0,0,55.6-59.4,108,0.6L692.7,429c0,0-17.4-38.5-83.9-22.6
			c-0.9,0.2-1.7,0.5-2.6,0.9c0,0,0,0,0,0C605.9,407.3,600.8,408.1,590.8,417.4z"/>
	</g>
	<g>
		<path class="st3" d="M789.9,627.5l7.4-13.1c0,0,7.1,23.2,36.9,14.8c0.4-0.1,0.8-0.3,1.2-0.5c0,0,0,0,0,0c1.8-1,3.3-2.9,4.2-5.6
			c2.2-6.4,3.8-20-2.1-47.4c0,0-2.8-13.4-1.3-18.4c0.2-0.5,0.4-0.9,0.6-1.2l7.5-9.2c0,0,1.4-1.9,4.9,1.9c0,0,7.3,8,13.7,13.3l0,0
			c0,0,3.1,2.7,5.9,1.3c-0.3,0.5-0.6,0.9-0.9,1.2l-8.9,10.1c0,0-6.7-1.8-12.2-8c0,0,8.4,33-4.3,56.2c-1.3,2.3-2.8,4.6-4.5,6.7
			C837.8,629.6,812.2,664,789.9,627.5z"/>
		<path class="st4" d="M836.1,557.3c0.2-0.5,0.4-0.9,0.6-1.2l7.5-9.2c0,0,1.4-1.9,4.9,1.9c0,0,7.3,8,13.7,13.3l0,0
			c0,0,3.1,2.7,5.9,1.3c-0.3,0.5-0.6,0.9-0.9,1.2l-8.9,10.1c0,0-6.7-1.8-12.2-8C846.6,566.8,837.6,556.7,836.1,557.3z"/>
		<path class="st4" d="M842.4,622.9c-1.3,2.3-2.8,4.6-4.5,6.7c0,0-25.6,34.4-47.9-2.1l7.4-13.1c0,0,7.1,23.2,36.9,14.8
			c0.4-0.1,0.8-0.3,1.2-0.5c0,0,0,0,0,0C835.5,628.7,837.8,628.3,842.4,622.9z"/>
	</g>
	<g>
		<path class="st1" d="M175.6,229c0.1-1.1,0.2-2.1,0.4-3.1l5.6-28c0,0,13.1-9.3,28.2-11c0,0-45.5-26.9-45.9-77.5
			c2.7-14.7,6.2-19,6.4-19.3c-2.1,4.2-2.8,9.3-1.8,14.1c2.4,11.8,12.5,31.5,48.5,55.7c0,0,17.5,11.8,19.6,20.7
			c0.2,0.9,0.3,1.8,0.1,2.6l-4,24.3c0,0-0.7,4.8-10.1,5.9c0,0-20,2.7-35.8,6.9l0,0c0.8,0.7,53.6,43.4,108.5,161.8
			c0,0,3.5,7.4,8.7,20.3c0,0,0,0,0,0c7.8,21.9,14.5,58.1,14.6,58.7c-9.1-39.3-31-92.6-83.1-144.2C235.6,317.1,173.9,259.1,175.6,229
			z"/>
		<path class="st2" d="M175.6,229c0.1-1.1,0.2-2.1,0.4-3.1l5.6-28c0,0,13.1-9.3,28.2-11c0,0,24.9-2.9,26.8-6.3
			c0.2,0.9,0.3,1.8,0.1,2.6l-4,24.3c0,0-0.7,4.8-10.1,5.9c0,0-20,2.7-35.8,6.9C186.9,220.4,179.1,222.3,175.6,229z"/>
	</g>
	<g>
		<path class="st5" d="M765.5,369.8l17.7-13.3c0,0,3.4-2.7,10.6,4.5c0,0,15.4,15.2,28.9,25.8c0,0,6.6,5.4,13.1,3.7
			c-0.7,0.7-1.4,1.3-2.2,1.8l-21.1,14.4c0,0-14.8-4.8-26.2-16.5c0,0,14.7,57.3-16.2,92.5c-10.9,7.8-16,7.8-16.3,7.8
			c4-1.1,7.6-4,9.9-8.2c5.7-10.2,10.8-32.4,1-79.7c0,0-4.7-23.1-0.7-31C764.4,370.9,764.9,370.2,765.5,369.8z"/>
		<path class="st6" d="M765.5,369.8l17.7-13.3c0,0,3.4-2.7,10.6,4.5c0,0,15.4,15.2,28.9,25.8c0,0,6.6,5.4,13.1,3.7
			c-0.7,0.7-1.4,1.3-2.2,1.8l-21.1,14.4c0,0-14.8-4.8-26.2-16.5c0,0-19-19.2-22.3-18.5C764.4,370.9,764.9,370.2,765.5,369.8z"/>
	</g>
	<g>
		<path class="st5" d="M231.5,664.4c-0.1-1.2-0.2-2.4-0.1-3.5l0.8-31.9c0,0,12.5-13.6,28.6-19.4c0,0-54.7-17.2-64.8-72.2
			c0.1-16.7,3.1-22.4,3.3-22.7c-1.4,5.2-1.2,10.8,0.8,15.9c4.8,12.3,19.6,31,63.5,47.8c0,0,21.3,8.3,25.3,17.4
			c0.4,0.9,0.6,1.9,0.6,2.8l0.3,27.5c0,0,0.2,5.4-9.9,9.2c0,0-21.3,8.2-37.7,16.9l0,0c1,0.5,66.7,33,149.1,147.6
			c0,0,5.3,7.1,13.3,19.8c0,0,0,0,0,0c12.7,21.8,26.9,59.4,27.1,60.1c-17.4-40.4-51.5-92.6-118.1-135.1
			C313.7,744.4,235.4,697.7,231.5,664.4z"/>
		<path class="st6" d="M231.5,664.4c-0.1-1.2-0.2-2.4-0.1-3.5l0.8-31.9c0,0,12.5-13.6,28.6-19.4c0,0,26.6-9.8,28-13.9
			c0.4,0.9,0.6,1.9,0.6,2.8l0.3,27.5c0,0,0.2,5.4-9.9,9.2c0,0-21.3,8.2-37.7,16.9C242.2,652,234.1,656.1,231.5,664.4z"/>
	</g>
	<g>
		<path class="st7" d="M712.6,812.9l-5.9,4.6c-2.6,2-4.8,2.7-6.6,2.6c0,0,0,0,0,0c-3.8-0.1-5.8-3.1-5.8-3.1
			c-6.5-7.1-10.5-9.8-10.5-9.8c7.2,16.6-0.8,22-0.8,22l-7.7,6c-0.5,0.4-1,0.7-1.5,0.9l0,0c-5,2.4-12.1-0.4-12.1-0.4
			c-21.7-7.4-31.3-2.4-31.3-2.4c-6,13.9-1.2,33.2-1.2,33.2l-11.7,8.3c-8.6-28.5,13.9-46.1,13.9-46.1c1.3-1.1,2.6-2,3.9-2.8
			c0,0,0,0,0,0c2.1-1.3,4.3-2.3,6.4-3c6.6-2.2,13.7-2,20.2,0.6c6,2.3,14.3,4.6,14.3,4.6c0.5-4.2-1.5-11-1.5-11
			c-4.3-10.9-0.2-14.9-0.2-14.9l8.5-7.1c0.3-0.2,0.6-0.4,0.9-0.5c4.2-1.7,10.2,5.7,10.2,5.7c5.3,6.8,9.9,9.4,9.9,9.4
			c0.8-2.3-0.6-18.8-0.6-18.8c-1.6-11.7,3.2-15.1,3.2-15.1l7.4-4.5c0.6-0.3,1.2-0.5,1.8-0.5c-2.3,1-1.1,13.8-1.1,13.8l1,18.9
			C716,811.5,712.6,812.9,712.6,812.9z"/>
		<path class="st8" d="M629.2,866.7l-11.7,8.3c-8.6-28.5,13.9-46.1,13.9-46.1c1.3-1.1,2.6-2,3.9-2.8c-4.1,5.1-4.9,7.4-4.9,7.4
			C624.4,847.4,629.2,866.7,629.2,866.7z"/>
		<path class="st8" d="M683,829.3l-7.7,6c-0.5,0.4-1,0.7-1.5,0.9l0,0c2.1-2.3,2.5-8,2.5-8c0.5-4.2-1.5-11-1.5-11
			c-4.3-10.9-0.2-14.9-0.2-14.9l8.5-7.1c0.3-0.2,0.6-0.4,0.9-0.5c-3.5,2.5-0.2,12.5-0.2,12.5C691,823.9,683,829.3,683,829.3z"/>
		<path class="st8" d="M712.6,812.9l-5.9,4.6c-2.6,2-4.8,2.7-6.6,2.6c4.5-1.8,4-10.3,4-10.3c0.8-2.3-0.6-18.8-0.6-18.8
			c-1.6-11.7,3.2-15.1,3.2-15.1l7.4-4.5c0.6-0.3,1.2-0.5,1.8-0.5c-2.3,1-1.1,13.8-1.1,13.8l1,18.9
			C716,811.5,712.6,812.9,712.6,812.9z"/>
	</g>
	<g>
		<path class="st3" d="M849.3,169.4c-12.4,5.7-35.2-5.9-35.2-5.9l12.9,26.4c4.9,11.2,0.8,16.2,0.8,16.2l-5.8,11.6
			c-2.5,5-5.3,7.8-7.9,9.3c0,0,0,0,0,0c-5.4,3.1-10.2,0.4-10.2,0.4c-13.7-4.8-21.1-5.4-21.1-5.4c20.4,17.9,12.1,32.4,12.1,32.4
			l-7.5,15c-0.4,0.9-1,1.7-1.6,2.5l0,0c-5.8,7.6-17.7,9.6-17.7,9.6c-35.7,7.4-46.6,22.6-46.6,22.6c-0.3,25.2,18.3,49,18.3,49
			L728,375c-29.6-34-7.7-78.1-7.7-78.1c1.2-2.6,2.5-5.1,3.9-7.4c0,0,0,0,0,0c2.3-3.7,4.8-6.9,7.5-9.6c8.2-8.8,18.6-14.2,29.6-16.1
			c10.1-1.7,23.4-5.3,23.4-5.3c-1.8-6.4-8.8-14.5-8.8-14.5c-12.8-12.1-9.3-21.4-9.3-21.4l8-17.3c0.3-0.6,0.6-1,1-1.5
			c5.1-5.9,18.2-0.3,18.2-0.3c11.7,5.4,20,5.3,20,5.3c-0.2-4-12.2-26.6-12.2-26.6c-9.4-15.6-4.4-24.5-4.4-24.5l8-12.7
			c0.6-1,1.4-1.7,2.3-2.3c5-3.3,12.9-0.3,12.9-0.3c23.1,8.1,32.9,9.5,32.9,9.5S854.8,162.8,849.3,169.4z"/>
		<path class="st4" d="M739.9,353.2L728,375c-29.6-34-7.7-78.1-7.7-78.1c1.2-2.6,2.5-5.1,3.9-7.4c-2.8,10.7-2.6,14.8-2.6,14.8
			C721.3,329.4,739.9,353.2,739.9,353.2z"/>
		<path class="st4" d="M795,254.4l-7.5,15c-0.4,0.9-1,1.7-1.6,2.5l0,0c1.6-5-1.2-13.6-1.2-13.6c-1.8-6.4-8.8-14.5-8.8-14.5
			c-12.8-12.1-9.3-21.4-9.3-21.4l8-17.3c0.3-0.6,0.6-1,1-1.5c-3.5,6.5,7.3,18.2,7.3,18.2C803.2,240,795,254.4,795,254.4z"/>
		<path class="st4" d="M827.8,206.1l-5.8,11.6c-2.5,5-5.3,7.8-7.9,9.3c5.3-6.3-0.4-18.2-0.4-18.2c-0.2-4-12.2-26.6-12.2-26.6
			c-9.4-15.6-4.4-24.5-4.4-24.5l8-12.7c0.6-1,1.4-1.7,2.3-2.3c-2.8,3.4,6.8,20.8,6.8,20.8l12.9,26.4
			C831.9,201.1,827.8,206.1,827.8,206.1z"/>
	</g>
	<g>
		<path class="st3" d="M359.8,520.8l-13.5,22.7c-6.8,12.3-2.7,22-2.7,22l10.5,22.2c0.9,1.9,2.3,3.5,3.9,4.8c11.5,9.4,37.2,4,37.2,4
			l-18.6,23.3c-7.4,10-4.2,16.3-4.2,16.3l3.5,13.6c1.5,5.9,3.8,9.5,6.2,11.8c0,0,0,0,0,0c4.9,4.7,10.3,3.3,10.3,3.3
			c14.9-1,22.7,0.5,22.7,0.5c-24.6,12.5-19.1,29.7-19.1,29.7l4.5,17.5c0.3,1.1,0.6,2.1,1.1,3l0,0c4.4,9.4,16.1,14.9,16.1,14.9
			c35,17.7,43,36.5,43,36.5c-4.9,25.8-28.8,44.9-28.8,44.9l7.7,25.6c37.3-26.3,24-77.7,24-77.7c-0.7-3-1.5-5.9-2.5-8.7c0,0,0,0,0,0
			c-1.6-4.4-3.5-8.4-5.6-12c-6.6-11.3-16.1-19.9-26.9-24.9c-10-4.6-22.8-12.1-22.8-12.1c3.2-6.1,12-12.3,12-12.3
			c15.6-8.7,13.9-19.2,13.9-19.2l-4.6-19.9c-0.2-0.6-0.4-1.2-0.7-1.8c-4-7.5-18.5-5.5-18.5-5.5c-13.1,2.2-21.6-0.3-21.6-0.3
			c1-4.1,18-23.7,18-23.7c12.8-13.2,9.6-23.8,9.6-23.8l-5.5-15.3c-0.5-1.2-1.1-2.2-1.9-3c-4.5-4.8-13.1-4-13.1-4
			c-25.3,1.6-35.6,0.4-35.6,0.4c4.2-16.3,20.5-38.2,20.5-38.2c8.2-11,4.1-18.7,4.1-18.7l-9.3-15.8c-0.7-1.1-1.5-1.9-2.5-2.4
			c-6.9-4-20.4,3.2-20.4,3.2c24.2-44.5,28-66.2,28-66.2c-11.9,13.6-20.9,23.2-26.8,29.2c-8.2,8.4-15.4,18-21.5,28.6
			c-0.1,0.2-0.2,0.3-0.2,0.3c-7.8,14.5-2,20.5-2,20.5l9.9,10c0.6,0.7,1.5,1.1,2.5,1.3C346.7,526.9,359.8,520.8,359.8,520.8z"/>
		<path class="st4" d="M431.9,811.6l7.7,25.6c37.3-26.3,24-77.7,24-77.7c-0.7-3-1.5-5.9-2.5-8.7c0.7,11.8-0.3,15.9-0.3,15.9
			C455.8,792.6,431.9,811.6,431.9,811.6z"/>
		<path class="st4" d="M395.9,694.9l4.5,17.5c0.3,1.1,0.6,2.1,1.1,3l0,0c-0.6-5.6,4.1-13.5,4.1-13.5c3.2-6.1,12-12.3,12-12.3
			c15.6-8.7,13.9-19.2,13.9-19.2l-4.6-19.9c-0.2-0.6-0.4-1.2-0.7-1.8c2.3,7.7-11.2,16.5-11.2,16.5
			C390.4,677.7,395.9,694.9,395.9,694.9z"/>
		<path class="st4" d="M372.3,636l3.5,13.6c1.5,5.9,3.8,9.5,6.2,11.8c-4.2-8,4.2-18.5,4.2-18.5c1-4.1,18-23.7,18-23.7
			c12.8-13.2,9.6-23.8,9.6-23.8l-5.5-15.3c-0.5-1.2-1.1-2.2-1.9-3c2.1,4.2-11.2,19.4-11.2,19.4l-18.6,23.3
			C369.1,629.8,372.3,636,372.3,636z"/>
		<path class="st4" d="M343.5,565.5l10.5,22.2c0.9,1.9,2.3,3.5,3.9,4.8c-4.3-8.4-0.2-19.1-0.2-19.1c4.2-16.3,20.5-38.2,20.5-38.2
			c8.2-11,4.1-18.7,4.1-18.7l-9.3-15.8c-0.7-1.1-1.5-1.9-2.5-2.4c4.7,3.6-10.7,22.5-10.7,22.5l-13.5,22.7
			C339.5,555.8,343.5,565.5,343.5,565.5z"/>
		<path class="st4" d="M327.6,513.8l9.9,10c0.6,0.7,1.5,1.1,2.5,1.3c-3.4-3.3,10.1-23.7,10.1-23.7c24.2-44.5,28-66.2,28-66.2
			c-11.9,13.6-20.9,23.2-26.8,29.2c-8.2,8.4-15.4,18-21.5,28.6c-0.1,0.2-0.2,0.3-0.2,0.3C321.8,507.8,327.6,513.8,327.6,513.8z"/>
	</g>
	<path class="st6" d="M510.8,492.5c0,0-11.2,6.2-16.1,13.6c0,0-7,9.5-7.5,17.3l0,0c-0.3-1.4-0.4-2.9-0.5-4.4l-1-24.9
		c0,0-2.2-24.7,27.8-35.3c0,0,16.9-8.6,16.1-19.6c0.2,0.8,0.3,1.7,0.4,2.6l0.6,28.2C530.5,470,530,484.7,510.8,492.5z"/>
	<path class="st3" d="M508.8,742.6c0,0-7.4,8.2-10.3,16.4c0,0-4.2,10.7-4,18.5l0,0c-0.3-1.4-0.5-2.8-0.7-4.2l-2.6-24.4
		c0,0-3.3-23.9,16.9-40c0,0,11.2-11.6,9.9-22.3c0.2,0.8,0.3,1.6,0.4,2.5l2.5,27.7C520.9,716.8,521.6,731.4,508.8,742.6z"/>
	<path class="st4" d="M710.7,745.2c0,0-6.7-0.3-11.3,1.9c0,0-6.2,2.6-9.3,6.3l0,0c0.4-0.8,0.9-1.6,1.4-2.3l8.8-12.6
		c0,0,8.2-12.8,23.9-9.1c0,0,9.8,0.8,13.5-4.8c-0.2,0.5-0.5,0.9-0.8,1.4l-10.2,14.1C726.7,740.1,721.1,747.2,710.7,745.2z"/>
	<path class="st4" d="M705.3,860c0,0-6.7-0.3-11.3,1.9c0,0-6.2,2.6-9.3,6.3l0,0c0.4-0.8,0.9-1.6,1.4-2.3l8.8-12.6
		c0,0,8.2-12.8,23.9-9.1c0,0,9.8,0.8,13.5-4.8c-0.2,0.5-0.5,0.9-0.8,1.4l-10.2,14.1C721.3,854.9,715.7,861.9,705.3,860z"/>
	<path class="st9" d="M727.1,492.4c0,0-13.9,8.4-15.2,10.7c0,0-7,4.7-5.6,10.6c-1.2-1.9-2-4.7-2.1-8.7l-0.1-9.2c0,0-1-4.6,5.3-9.2
		l15.6-10.3c0,0,10.9-6.4,10.2-9.6c0.4,0.7,0.6,1.4,0.7,2.3l1.1,10.8C737,479.8,737.4,487.1,727.1,492.4z"/>
	<path class="st9" d="M1052.1,617.5c0,0-1.1,16.2,0,18.6c0,0-0.2,8.4,5.5,10.7c-2.2-0.2-5-1.1-8.3-3.3l-7.6-5.2c0,0-4.4-1.8-4.5-9.6
		l0.5-18.7c0,0,1-12.6-1.9-13.9c0.8,0.1,1.5,0.3,2.3,0.7l9.4,5.3C1047.4,602.1,1053.6,606,1052.1,617.5z"/>
	<path class="st8" d="M834,296c0,0-15.6-1.8-17.8-0.7c0,0-8-0.5-9.6,5.4c-0.1-2.4,0.5-5.3,2.3-8.6l4.2-7.8c0,0,1.3-4.5,8.7-4.4
		l17.9,1.2c0,0,12.1,1.5,13-1.5c0,0.8-0.2,1.6-0.4,2.4l-4,9.8C848.1,291.6,845.1,298,834,296z"/>
	<path class="st2" d="M726.3,105c0,0-15.3,3.8-17.1,5.6c0,0-7.8,2.4-7.8,8.5c-0.7-2.2-0.9-5.2,0-9l2-8.9c0,0,0-4.8,7.1-7.3l17.3-5.1
		c0,0,12-2.8,12-6c0.2,0.8,0.3,1.6,0.2,2.4l-1.4,10.7C738.7,95.9,737.5,103,726.3,105z"/>
	<path class="st6" d="M316.8,94.2c0,0-15.3,3.8-17.1,5.6c0,0-7.8,2.4-7.8,8.5c-0.7-2.2-0.9-5.2,0-9l2-8.9c0,0,0-4.8,7.1-7.3
		l17.3-5.1c0,0,12-2.8,12-6c0.2,0.8,0.3,1.6,0.2,2.4L329.2,85C329.2,85,327.9,92.2,316.8,94.2z"/>
	<path class="st6" d="M992.1,239.6c0,0-5.6-17.2-7.5-19c0,0-3.2-8.7-8.4-7.7c1.8-1.1,4.2-1.9,7.6-1.5l7.8,0.9c0,0,4-0.7,7.2,7.1
		l7.1,19.3c0,0,4.3,13.4,7,13c-0.6,0.3-1.3,0.6-2,0.6l-9.2,0.1C1001.8,252.5,995.6,252.2,992.1,239.6z"/>
	<path class="st4" d="M604.2,648.5c0,0-15.6-1.8-17.8-0.7c0,0-8-0.5-9.6,5.4c-0.1-2.4,0.5-5.3,2.3-8.6l4.2-7.8c0,0,1.3-4.5,8.7-4.4
		l17.9,1.2c0,0,12.1,1.5,13-1.5c0,0.8-0.2,1.6-0.4,2.4l-4,9.8C618.4,644.1,615.3,650.5,604.2,648.5z"/>
	<path class="st4" d="M167.9,400.2c0,0,7,5.3,13.7,3.9c-1.2,0.9-2.5,1.6-4,1.9L160,409c0,0-7.6,1-15.3-6.6l-14.2-14.8
		c0,0-11.1-15.4-14.5-12.6c0.5-0.6,1.3-1.1,2.1-1.4l12.8-3.6c0,0,6.2-1.4,12.8,7C143.8,376.9,156.9,393.7,167.9,400.2z"/>
	<g>
		<path class="st7" d="M833.1,510c0,0-6.2-3.6-10.3-3.5c0,0-5.5-0.2-8,2.2l0,0c0.3-0.6,0.7-1.3,1.1-1.8l6.8-9.4
			c0,0,6.2-9.9,21.2,1.8c0,0-2.1-5.7-8-15.3c0,0-2.6-3.1-2.2-8.1c0,0,0,0,0,0c0.2-2.4,1.1-5.2,3.4-8.4l5.2-7.3c0,0,1.8-4.4,9.4-3.2
			l18,3.9c0,0-12-15.1-11.7-26.2c2.5-5.9,9.1-7.1,9.1-7.1s3.2,7.3,13.2,23.5c0,0,3.5,5.4,2.8,10.2c-0.1,0.8-0.4,1.6-0.8,2.3L877,473
			c0,0-3.9,6-14.9,2.3c0,0-15.6-4.1-18-3.3c0,0,1.9,6.6,7.7,14.4c0,0,6.3,8.9,4.1,14.3c-0.2,0.4-0.4,0.8-0.6,1.1l-7.9,10.4
			C847.4,512.3,843,517.2,833.1,510z"/>
		<path class="st8" d="M833.1,510c0,0-6.2-3.6-10.3-3.5c0,0-5.5-0.2-8,2.2l0,0c0.3-0.6,0.7-1.3,1.1-1.8l6.8-9.4
			c0,0,6.2-9.9,21.2,1.8c0,0,9.2,5.7,12,1.4c-0.2,0.4-0.4,0.8-0.6,1.1l-7.9,10.4C847.4,512.3,843,517.2,833.1,510z"/>
		<path class="st8" d="M842.3,460.4l-5.2,7.3c-2.3,3.1-3.2,6-3.4,8.4c2.3-5.7,10.4-4,10.4-4c2.3-0.8,18,3.3,18,3.3
			c11,3.7,14.9-2.3,14.9-2.3l5.3-9.3c0.4-0.7,0.6-1.5,0.8-2.3c-1.3,3-13.4-0.4-13.4-0.4l-18-3.9C844.1,456,842.3,460.4,842.3,460.4z
			"/>
	</g>
	<g>
		<path class="st7" d="M1000.5,111.1c0,0,4.6-5.6,5.1-9.6c0,0,1.1-5.4-0.9-8.2l0,0c0.6,0.4,1.1,0.9,1.6,1.3l8.2,8.2
			c0,0,8.8,7.8-5.3,20.6c0,0,6-1.1,16.4-5.5c0,0,3.5-2.1,8.3-0.8c0,0,0,0,0,0c2.3,0.6,5,2,7.7,4.7l6.3,6.3c0,0,4,2.5,1.6,9.7
			l-6.7,17.1c0,0,16.9-9.4,27.7-7.3c5.4,3.4,5.5,10.1,5.5,10.1s-7.7,1.9-25.3,9.2c0,0-5.9,2.6-10.5,1.2c-0.8-0.2-1.5-0.6-2.2-1.1
			l-8.3-6.8c0,0-5.3-4.8,0.1-15.1c0,0,6.6-14.8,6.2-17.2c0,0-6.8,0.8-15.5,5.3c0,0-9.8,4.7-14.8,1.7c-0.4-0.2-0.7-0.5-1-0.8l-9-9.5
			C995.9,124.8,991.8,119.6,1000.5,111.1z"/>
		<path class="st8" d="M1000.5,111.1c0,0,4.6-5.6,5.1-9.6c0,0,1.1-5.4-0.9-8.2l0,0c0.6,0.4,1.1,0.9,1.6,1.3l8.2,8.2
			c0,0,8.8,7.8-5.3,20.6c0,0-7.1,8.2-3.4,11.7c-0.4-0.2-0.7-0.5-1-0.8l-9-9.5C995.9,124.8,991.8,119.6,1000.5,111.1z"/>
		<path class="st8" d="M1048,128.1l-6.3-6.3c-2.7-2.7-5.4-4.1-7.7-4.7c5.2,3.2,2.3,10.9,2.3,10.9c0.4,2.4-6.2,17.2-6.2,17.2
			c-5.4,10.3-0.1,15.1-0.1,15.1l8.3,6.8c0.7,0.5,1.4,0.9,2.2,1.1c-2.7-1.7,2.5-13.2,2.5-13.2l6.7-17.1
			C1052,130.7,1048,128.1,1048,128.1z"/>
	</g>
	<g>
		<path class="st5" d="M463.6,88.3c0,0,2.3-7.7,1.7-12.5c0,0-0.5-6.5-2.9-9l0,0c0.6,0.3,1.1,0.6,1.7,1l8.8,6.7c0,0,9.1,6.1,1,25
			c0,0,4.6-3.1,11.9-11.2c0,0,2.3-3.4,6.5-3.5c0,0,0,0,0,0c2,0,4.6,0.7,7.5,2.9l6.8,5.2c0,0,3.9,1.6,3.8,10.5l-1.1,21.5
			c0,0,11.3-15.8,20.7-16.9c5.3,2.1,7.1,9.7,7.1,9.7s-5.8,4.6-18.2,18.3c0,0-4.1,4.8-8.2,4.6c-0.7,0-1.4-0.2-2-0.6l-8.5-5.1
			c0,0-5.6-3.8-3.8-17.1c0,0,1.5-18.7,0.6-21.4c0,0-5.3,3-11.2,10.8c0,0-6.8,8.4-11.6,6.5c-0.3-0.1-0.7-0.3-1-0.6l-9.7-7.9
			C463.5,105.3,458.8,100.7,463.6,88.3z"/>
		<path class="st6" d="M463.6,88.3c0,0,2.3-7.7,1.7-12.5c0,0-0.5-6.5-2.9-9l0,0c0.6,0.3,1.1,0.6,1.7,1l8.8,6.7c0,0,9.1,6.1,1,25
			c0,0-3.7,11.4,0.3,14.2c-0.3-0.1-0.7-0.3-1-0.6l-9.7-7.9C463.5,105.3,458.8,100.7,463.6,88.3z"/>
		<path class="st6" d="M506.6,92.9l-6.8-5.2c-2.9-2.3-5.4-3-7.5-2.9c5.1,2,4.7,11.7,4.7,11.7c1,2.6-0.6,21.4-0.6,21.4
			c-1.8,13.3,3.8,17.1,3.8,17.1l8.5,5.1c0.7,0.4,1.4,0.6,2,0.6c-2.6-1.1-1.3-15.7-1.3-15.7l1.1-21.5
			C510.6,94.6,506.6,92.9,506.6,92.9z"/>
	</g>
	<g>
		<path class="st1" d="M369.6,886.9c0,0-3.4,9.2-3,15c0,0,0.1,7.9,2.8,11.3l0,0c-0.7-0.4-1.3-0.9-2-1.4l-10.1-9.1
			c0,0-10.6-8.3,0.7-30.5c0,0-5.8,3.3-15.3,12.4c0,0-3,3.9-8.2,3.6c0,0,0,0,0,0c-2.5-0.2-5.5-1.3-8.9-4.4l-7.8-7
			c0,0-4.7-2.4-3.8-13.2l2.9-26c0,0-14.9,18-26.4,18.3c-1.6,0-3.1-0.3-4.5-1l-16-8.9c0,0-6.6-4.1-7.1-16.1l-0.2-22.7
			c0,0,2.6-21.2-2.1-21c0.9-0.2,1.8-0.1,2.6,0.2l12.6,5.3c0,0,5.9,2.9,4.9,14.8c0,0-2,23.8,1.8,37c0,0,7.4-4.9,23.5-20.2
			c0,0,5.4-5.4,10.3-4.7c0.8,0.1,1.7,0.4,2.4,0.9l9.9,7.1c0,0,6.5,5.2,3.3,21.2c0,0-3.3,22.6-2.3,25.9c0,0,6.7-3.1,14.5-11.9
			c0,0,8.9-9.5,14.6-6.7c0.4,0.2,0.8,0.5,1.2,0.8l11.2,10.7C371.1,866.3,376.4,872.4,369.6,886.9z"/>
		<path class="st2" d="M369.6,886.9c0,0-3.4,9.2-3,15c0,0,0.1,7.9,2.8,11.3l0,0c-0.7-0.4-1.3-0.9-2-1.4l-10.1-9.1
			c0,0-10.6-8.3,0.7-30.5c0,0,5.4-13.5,0.8-17.3c0.4,0.2,0.8,0.5,1.2,0.8l11.2,10.7C371.1,866.3,376.4,872.4,369.6,886.9z"/>
		<path class="st2" d="M317.7,876.8l7.8,7c3.4,3,6.4,4.2,8.9,4.4c-6-3-4.8-14.7-4.8-14.7c-1-3.3,2.3-25.9,2.3-25.9
			c3.2-16-3.3-21.2-3.3-21.2l-9.9-7.1c-0.8-0.5-1.6-0.8-2.4-0.9c3.1,1.6,0.4,19.2,0.4,19.2l-2.9,26
			C313.1,874.4,317.7,876.8,317.7,876.8z"/>
		<path class="st2" d="M282.6,843.3c0,0,1.6,9.4,7.9,12.6c-1.6,0-3.1-0.3-4.5-1l-16-8.9c0,0-6.6-4.1-7.1-16.1l-0.2-22.7
			c0,0,2.6-21.2-2.1-21c0.9-0.2,1.8-0.1,2.6,0.2l12.6,5.3c0,0,5.9,2.9,4.9,14.8C280.7,806.4,278.7,830.1,282.6,843.3z"/>
	</g>
	<g>
		<path class="st9" d="M732.3,656.3l-16.6,21.1c-1.5,1.8-3.3,3.1-5.3,4.1c-14.8,6.7-41.9-7.4-41.9-7.4l15.2,31.6
			c5.8,13.4,0.9,19.3,0.9,19.3l-6.9,13.8c-3,6-6.3,9.3-9.5,11c0,0,0,0,0,0c-6.5,3.6-12.1,0.4-12.1,0.4c-16.2-5.8-25.1-6.6-25.1-6.6
			c24.2,21.5,14.3,38.7,14.3,38.7l-9,17.9c-0.5,1.1-1.2,2.1-1.9,3l0,0c-7,9-21.1,11.3-21.1,11.3c-42.6,8.5-55.7,26.6-55.7,26.6
			s-0.2-3.7,2.2-13.4c1.2-2.6,2.4-5.2,3.5-7.8c2.1-2.9,4.2-5.4,6.5-7.8c9.9-10.4,22.2-16.8,35.3-18.9c12-1.9,27.9-6.2,27.9-6.2
			c-2.1-7.7-10.4-17.4-10.4-17.4c-15.2-14.5-11-25.5-11-25.5l9.6-20.5c0.3-0.7,0.7-1.2,1.2-1.7c6.1-7,21.7-0.3,21.7-0.3
			c13.9,6.5,23.8,6.5,23.8,6.5c-0.2-4.8-14.4-31.8-14.4-31.8c-11.1-18.6-5.1-29.2-5.1-29.2l9.6-15.1c0.8-1.2,1.7-2,2.7-2.7
			c6-3.9,15.3-0.3,15.3-0.3c27.5,9.8,39.1,11.6,39.1,11.6C714.1,641.3,701,612,701,612c-6.5-14.6-0.2-21.9-0.2-21.9l13.9-14.5
			c1-1,2.1-1.6,3.3-1.9c-6.1,2.5,6.6,28.2,6.6,28.2l9.7,29.3C739,647,732.3,656.3,732.3,656.3z"/>
		<path class="st10" d="M645.2,782.4l-9,17.9c-0.5,1.1-1.2,2.1-1.9,3l0,0c2-6-1.4-16.2-1.4-16.2c-2.1-7.7-10.4-17.4-10.4-17.4
			c-15.2-14.5-11-25.5-11-25.5l9.6-20.5c0.3-0.7,0.7-1.2,1.2-1.7c-4.2,7.7,8.6,21.8,8.6,21.8C655.2,765.2,645.2,782.4,645.2,782.4z"
			/>
		<path class="st10" d="M684.6,725l-6.9,13.8c-3,6-6.3,9.3-9.5,11c6.4-7.5-0.4-21.7-0.4-21.7c-0.2-4.8-14.4-31.8-14.4-31.8
			c-11.1-18.6-5.1-29.2-5.1-29.2l9.6-15.1c0.8-1.2,1.7-2,2.7-2.7c-3.3,4,7.9,24.9,7.9,24.9l15.2,31.6
			C689.6,719.1,684.6,725,684.6,725z"/>
		<path class="st10" d="M732.3,656.3l-16.6,21.1c-1.5,1.8-3.3,3.1-5.3,4.1c6.6-7.9,4.5-20.9,4.5-20.9C714.1,641.3,701,612,701,612
			c-6.5-14.6-0.2-21.9-0.2-21.9l13.9-14.5c1-1,2.1-1.6,3.3-1.9c-6.1,2.5,6.6,28.2,6.6,28.2l9.7,29.3
			C739,647,732.3,656.3,732.3,656.3z"/>
	</g>
	<g>
		<path class="st9" d="M650.2,129.8l-2.2,12.9c-1,5.6-2.8,9.2-4.8,11.5c0,0,0,0,0,0c-4.2,4.8-9.3,4.1-9.3,4.1
			c-13.9,0.6-20.9,2.8-20.9,2.8c23.6,9,19.8,25.5,19.8,25.5l-2.9,16.7c-0.2,1-0.4,2-0.8,2.9l0,0c-3.3,9.2-13.8,15.4-13.8,15.4
			c-31.1,20-37.1,38.1-37.1,38.1s-1-2.9-1.4-11.1c0.3-2.4,0.6-4.8,1-7.2c1-2.9,2.1-5.6,3.2-8.1c5.3-11.1,13.4-20,23.1-25.7
			c8.9-5.3,20.2-13.6,20.2-13.6c-3.4-5.3-12-10.2-12-10.2c-15.1-6.4-14.3-16.3-14.3-16.3l2.8-18.9c0.1-0.6,0.3-1.2,0.5-1.7
			c3.1-7.4,16.7-7,16.7-7c12.3,0.7,19.9-2.5,19.9-2.5c-1.3-3.7-18.4-20.1-18.4-20.1c-12.9-10.9-10.6-21-10.6-21l4-14.7
			c0.3-1.1,0.9-2.1,1.5-2.9c-1.7,4.1,11.8,16.8,11.8,16.8l19,19.7C652.7,123.7,650.2,129.8,650.2,129.8z"/>
		<path class="st10" d="M632.7,186.6l-2.9,16.7c-0.2,1-0.4,2-0.8,2.9l0,0c0.2-5.3-4.8-12.1-4.8-12.1c-3.4-5.3-12-10.2-12-10.2
			c-15.1-6.4-14.3-16.3-14.3-16.3l2.8-18.9c0.1-0.6,0.3-1.2,0.5-1.7c-1.5,7.3,11.6,14.1,11.6,14.1
			C636.5,170.2,632.7,186.6,632.7,186.6z"/>
		<path class="st10" d="M650.2,129.8l-2.2,12.9c-1,5.6-2.8,9.2-4.8,11.5c3.3-7.8-5.2-16.7-5.2-16.7c-1.3-3.7-18.4-20.1-18.4-20.1
			c-12.9-10.9-10.6-21-10.6-21l4-14.7c0.3-1.1,0.9-2.1,1.5-2.9c-1.7,4.1,11.8,16.8,11.8,16.8l19,19.7
			C652.7,123.7,650.2,129.8,650.2,129.8z"/>
	</g>
	<g>
		<path class="st11" d="M461.1,409.2c13.9,73.9-20.3,109-20.3,109l-5.1-27c28.7-24.9,23-80.2,23-80.2c-6.7-35.4-44.4-58.3-44.4-58.3
			c-21.6-12.4-35-28.3-43.3-42.6c-11.3-19.3-13.1-35.5-13.1-35.5c-11.7-62.4,36-104.3,36-104.3l4.9,26
			c-40.4,36.7-36.3,78.2-36.3,78.2c5.7,30.2,49.1,53.8,49.1,53.8c21.3,11.6,33.6,31.3,40.6,48.4
			C459.5,394.4,461.1,409.2,461.1,409.2z"/>
		<path class="st12" d="M461.1,409.2c13.9,73.9-20.3,109-20.3,109l-5.1-27c28.7-24.9,23-80.2,23-80.2s0.1-14.3-6.4-34.3
			C459.5,394.4,461.1,409.2,461.1,409.2z"/>
		<path class="st12" d="M393.9,170.3l4.9,26c-40.4,36.7-36.3,78.2-36.3,78.2s-0.8,11.5,8.5,35.6c-11.3-19.3-13.1-35.5-13.1-35.5
			C346.1,212.2,393.9,170.3,393.9,170.3z"/>
	</g>
	<g>
		<path class="st11" d="M902,344.6c11.3,45.5,53.4,47.8,53.4,47.8l-4.1-16.7c-33.8,0.5-46.5-31.3-46.5-31.3
			c-5.4-21.8,21.1-51.8,21.1-51.8c15.4-16.8,22.4-31.6,25.2-43c3.9-15.5,0.3-24.9,0.3-24.9c-9.6-38.5-66-37.9-66-37.9l4,16
			c48.2,0.1,57.9,24,57.9,24c4.6,18.6-26.8,51.7-26.8,51.7c-15.4,16.2-20.1,32.5-21,44.8C898.6,336,902,344.6,902,344.6z"/>
		<path class="st12" d="M902,344.6c11.3,45.5,53.4,47.8,53.4,47.8l-4.1-16.7c-33.8,0.5-46.5-31.3-46.5-31.3s-4.7-7.5-5.3-21.2
			C898.6,336,902,344.6,902,344.6z"/>
		<path class="st12" d="M885.4,186.7l4,16c48.2,0.1,57.9,24,57.9,24s4.4,5.7,3.9,22.8c3.9-15.5,0.3-24.9,0.3-24.9
			C941.9,186.1,885.4,186.7,885.4,186.7z"/>
	</g>
	<g>
		<path class="st7" d="M559,241.7c0,0-0.6,6.7-3.7,16c0,0,0,0,0,0c-5.1,15.1-16.9,36.8-44,47.4c0,0-34.3,10.5-43.7-20.1
			c0,0-0.5-10.3,3.4-19.4c0,0,7.5,29.4,43.5,19.2c0,0,30.4-10,42.8-43.4c0,0,0,0,0,0s4.2-42.6-26.4-50.6l3.2-20.3
			C534,170.5,567.8,178.2,559,241.7z"/>
		<path class="st8" d="M544.6,265.9c0.1,1.2,0.2,2.4,0.3,3.5c5,56.2-16.9,69.1-16.9,69.1l2.7-19.1c5.6-4.4,8.6-9.8,10.2-15.4
			c3.9-13.7-1.4-28-1.4-28c-11.4-40.3-46.4-29.5-46.4-29.5c-16.8,6.6-22.1,19.1-22.1,19.1c-3.9,9.1-3.4,19.4-3.4,19.4
			c0-0.1,0-0.2-0.1-0.3c-4.7-22.8,2.6-37.2,10.6-45.8c8.6-9.1,20-13.5,31.5-12.7c13.5,0.9,21.9,8.6,27,16.5
			C541.1,249.5,543.7,257.5,544.6,265.9z"/>
		<path class="st8" d="M559,241.7c0,0-0.6,6.7-3.7,16c1.6-7.7,2-15.8,2-16.3c0,0,0,0,0,0s4.2-42.6-26.4-50.6l3.2-20.3
			C534,170.5,567.8,178.2,559,241.7z"/>
		<path class="st7" d="M544.9,269.1l0.1,0.4c5,56.2-16.9,69.1-16.9,69.1l2.7-19.1c5.6-4.4,8.6-9.8,10.2-15.4l0,0
			C541,304,543.6,296.3,544.9,269.1z"/>
	</g>
	<g>
		<path class="st7" d="M139,494.5c0,0-3.6-1.4-8.2-5.2c0,0,0,0,0,0c-7.5-6.1-17.7-18.2-19.5-40.3c0,0-0.7-27.5,17.4-30.2
			c0,0,5.7,1.2,10.1,5.5c0,0-17.2,1.4-16.9,30.1c0,0,1,24.5,17.5,38.8c0,0,0,0,0,0s22.7,9.4,31.6-12.6l10.6,5.4
			C181.7,486.1,172.5,510.5,139,494.5z"/>
		<path class="st8" d="M127.9,480.1c-0.7-0.1-1.3-0.2-2-0.3c-31.5-4.5-35.4-23-35.4-23l10.1,4.9c1.6,4.9,4.1,8,6.9,10
			c6.9,5,15.6,3.1,15.6,3.1c23.8-2.7,23-30.8,23-30.8c-1.1-13.7-7.2-19.6-7.2-19.6c-4.4-4.3-10.1-5.5-10.1-5.5c0.1,0,0.1,0,0.2,0
			c13.2-0.2,20,7.4,23.5,14.8c3.7,7.8,4.4,17.1,2.3,25.8c-2.5,10.1-8,15.4-13,18.1C137.4,479.8,132.6,480.6,127.9,480.1z"/>
		<path class="st8" d="M139,494.5c0,0-3.6-1.4-8.2-5.2c4,2.4,8.3,3.8,8.6,3.9c0,0,0,0,0,0s22.7,9.4,31.6-12.6l10.6,5.4
			C181.7,486.1,172.5,510.5,139,494.5z"/>
		<path class="st7" d="M126.1,479.8l-0.2,0c-31.5-4.5-35.4-23-35.4-23l10.1,4.9c1.6,4.9,4.1,8,6.9,10l0,0
			C107.6,471.7,111.4,474.8,126.1,479.8z"/>
	</g>
	<g>
		<path class="st7" d="M979.6,595.8c0,0-3.6-1.4-8.2-5.2c0,0,0,0,0,0c-7.5-6.1-17.7-18.2-19.5-40.3c0,0-0.7-27.5,17.4-30.2
			c0,0,5.7,1.2,10.1,5.5c0,0-17.2,1.4-16.9,30.1c0,0,1,24.5,17.5,38.8c0,0,0,0,0,0s22.7,9.4,31.6-12.6l10.6,5.4
			C1022.3,587.3,1013.1,611.8,979.6,595.8z"/>
		<path class="st8" d="M968.4,581.3c-0.7-0.1-1.3-0.2-2-0.3c-31.5-4.5-35.4-23-35.4-23l10.1,4.9c1.6,4.9,4.1,8,6.9,10
			c6.9,5,15.6,3.1,15.6,3.1c23.8-2.7,23-30.8,23-30.8c-1.1-13.7-7.2-19.6-7.2-19.6c-4.4-4.3-10.1-5.5-10.1-5.5c0.1,0,0.1,0,0.2,0
			c13.2-0.2,20,7.4,23.5,14.8c3.7,7.8,4.4,17.1,2.3,25.8c-2.5,10.1-8,15.4-13,18.1C978,581,973.2,581.9,968.4,581.3z"/>
		<path class="st8" d="M979.6,595.8c0,0-3.6-1.4-8.2-5.2c4,2.4,8.3,3.8,8.6,3.9c0,0,0,0,0,0s22.7,9.4,31.6-12.6l10.6,5.4
			C1022.3,587.3,1013.1,611.8,979.6,595.8z"/>
		<path class="st7" d="M966.7,581l-0.2,0c-31.5-4.5-35.4-23-35.4-23l10.1,4.9c1.6,4.9,4.1,8,6.9,10l0,0
			C948.1,572.9,952,576.1,966.7,581z"/>
	</g>
	<ellipse class="st4" cx="879.8" cy="368.7" rx="11.1" ry="13.1"/>
	<ellipse class="st6" cx="667" cy="240.3" rx="11.1" ry="13.1"/>
	<ellipse class="st4" cx="642.4" cy="449.1" rx="11.1" ry="13.1"/>
	<ellipse class="st8" cx="661.6" cy="614.5" rx="11.1" ry="13.1"/>
	<ellipse class="st5" cx="799.9" cy="576.6" rx="11.1" ry="13.1"/>
	<ellipse class="st5" cx="116.1" cy="104.2" rx="11.1" ry="13.1"/>
	<ellipse class="st4" cx="788.4" cy="686.8" rx="11.1" ry="13.1"/>
	<ellipse class="st11" cx="470.3" cy="587.4" rx="11.1" ry="13.1"/>
	<ellipse class="st4" cx="295.1" cy="228.6" rx="11.1" ry="13.1"/>
	<ellipse class="st2" cx="352" cy="389.5" rx="11.1" ry="13.1"/>
	<ellipse class="st4" cx="90.7" cy="332.5" rx="11.1" ry="13.1"/>
	<ellipse class="st4" cx="206" cy="682.3" rx="11.1" ry="13.1"/>
	<ellipse class="st1" cx="414.2" cy="794.4" rx="11.1" ry="13.1"/>
	<ellipse class="st6" cx="206" cy="780.9" rx="11.1" ry="13.1"/>
	<ellipse class="st4" cx="499.5" cy="332.5" rx="11.1" ry="13.1"/>
	<polygon class="st5" points="136.1,234 105,255.5 111.8,226.7 	"/>
	<polygon class="st5" points="974.8,324.7 941.2,309 964.8,297.7 	"/>
	<polygon class="st10" points="328.7,186 299.1,161.7 324.2,156.9 	"/>
	<polygon class="st4" points="340.2,334.2 310.6,310 335.7,305.2 	"/>
	<ellipse class="st8" cx="295.1" cy="555.8" rx="11.1" ry="13.1"/>
	<polygon class="st4" points="323.1,662.9 331.9,621.7 344.5,647.6 	"/>
	<polygon class="st10" points="519.8,895.2 528.5,854 541.2,879.9 	"/>
	<polygon class="st4" points="741.8,556.2 750.6,515 763.3,541 	"/>
	<polygon class="st4" points="885.1,125.4 863.5,89.2 890.5,99.6 	"/>
	<polygon class="st12" points="162,670.4 178.2,708.4 154.2,698.5 	"/>
	<polygon class="st4" points="573.8,720.1 590,758.1 566,748.2 	"/>
	<polygon class="st12" points="618.4,300.7 634.6,338.7 610.6,328.8 	"/>
	<polygon class="st4" points="955.1,147.2 958.3,154.8 965.5,156 960.3,162 961.5,170.4 955.1,166.4 948.7,170.4 949.9,162 
		944.7,156 951.9,154.8 	"/>
	<polygon class="st2" points="905.2,564.8 908.4,572.4 915.5,573.6 910.4,579.6 911.6,588 905.2,584 898.8,588 900,579.6 
		894.8,573.6 902,572.4 	"/>
	<polygon class="st2" points="413.9,246 417.1,253.6 424.2,254.9 419,260.8 420.3,269.2 413.9,265.2 407.4,269.2 408.7,260.8 
		403.5,254.9 410.6,253.6 	"/>
	<polygon class="st2" points="1061.1,192.4 1064.4,200 1071.5,201.2 1066.3,207.2 1067.6,215.6 1061.1,211.6 1054.7,215.6 
		1056,207.2 1050.8,201.2 1057.9,200 	"/>
	<polygon class="st2" points="175.2,602.7 178.5,610.4 185.6,611.6 180.4,617.6 181.7,626 175.2,622 168.8,626 170.1,617.6 
		164.9,611.6 172,610.4 	"/>
	<polygon class="st4" points="333.5,769.1 336.7,776.7 343.9,777.9 338.7,783.9 339.9,792.3 333.5,788.3 327.1,792.3 328.3,783.9 
		323.2,777.9 330.3,776.7 	"/>
	<polygon class="st2" points="474.9,669.6 478.1,677.3 485.3,678.5 480.1,684.4 481.3,692.8 474.9,688.9 468.5,692.8 469.7,684.4 
		464.5,678.5 471.7,677.3 	"/>
	<polygon class="st12" points="217.5,416.5 220.7,424.2 227.9,425.4 222.7,431.4 223.9,439.8 217.5,435.8 211.1,439.8 212.3,431.4 
		207.1,425.4 214.3,424.2 	"/>
	<polygon class="st12" points="79.7,168.2 82.9,175.9 90.1,177.1 84.9,183.1 86.1,191.5 79.7,187.5 73.3,191.5 74.5,183.1 
		69.3,177.1 76.5,175.9 	"/>
	<polygon class="st4" points="661.6,535 664.8,542.6 672,543.8 666.8,549.8 668,558.2 661.6,554.2 655.2,558.2 656.4,549.8 
		651.2,543.8 658.4,542.6 	"/>
	<polygon class="st4" points="459.5,145.4 462.7,153 469.9,154.2 464.7,160.2 465.9,168.6 459.5,164.6 453.1,168.6 454.3,160.2 
		449.2,154.2 456.3,153 	"/>
	<polygon class="st4" points="284.4,468.1 287.6,475.7 294.7,476.9 289.5,482.9 290.8,491.3 284.4,487.3 277.9,491.3 279.2,482.9 
		274,476.9 281.1,475.7 	"/>
	<polygon class="st6" points="410.4,448.2 413.6,455.8 420.7,457 415.5,463 416.8,471.4 410.4,467.4 404,471.4 405.2,463 400,457 
		407.2,455.8 	"/>
	<polygon class="st6" points="741.5,168.9 744.7,176.5 751.9,177.7 746.7,183.7 747.9,192.1 741.5,188.1 735.1,192.1 736.3,183.7 
		731.1,177.7 738.3,176.5 	"/>
	<polygon class="st4" points="531,394.8 534.2,402.5 541.4,403.7 536.2,409.7 537.4,418.1 531,414.1 524.6,418.1 525.8,409.7 
		520.6,403.7 527.8,402.5 	"/>
	<g>
		<path class="st7" d="M1280.7,497.2c-0.6,0.8-1.3,1.5-2,2.1l-19.5,17.5c0,0-15.2-2.6-27.9-12.6c0,0,20.8,55-6.3,94.6
			c-2.7,4-6,7.9-9.8,11.5c0,0-55.6,59.4-108-0.6l15.9-22.4c0,0,17.4,38.5,83.9,22.6c0.9-0.2,1.7-0.5,2.6-0.9c0,0,0,0,0,0
			c3.9-1.7,7.2-5.1,9-9.6c4.6-11,7.4-33.9-7.5-79.6c0,0-7.2-22.3-4-30.8c0.3-0.9,0.8-1.6,1.3-2.1l16.3-15.9c0,0,3.1-3.2,11.1,3
			c0,0,17,12.9,31.5,21.5l0,0c-0.3-1.1-18.1-73.9,3.5-207.1c0,0,1.3-8.4,4.3-22.3c0,0,0,0,0,0c5.1-23.6,15.3-62.9,32.9-103.7
			l16.4-4.7c0,0-15.5,17-28.8,51.9c0,0,0,0,0,0c-14.3,37.4-26.1,95.2-13.7,174.4C1281.9,383.9,1298.4,475.1,1280.7,497.2z"/>
		<path class="st8" d="M1280.7,497.2c-0.6,0.8-1.3,1.5-2,2.1l-19.5,17.5c0,0-15.2-2.6-27.9-12.6c0,0-21-16.4-24.2-15.2
			c0.3-0.9,0.8-1.6,1.3-2.1l16.3-15.9c0,0,3.1-3.2,11.1,3c0,0,17,12.9,31.5,21.5C1267.3,495.4,1274.4,499.8,1280.7,497.2z"/>
		<path class="st8" d="M1324.4,157.6c0,0-15.5,17-28.8,51.9c0,0,0,0,0,0c-0.3,0.6-14.6,33.7-20.5,56.5
			c5.1-23.6,15.3-62.9,32.9-103.7L1324.4,157.6z"/>
		<path class="st8" d="M1224.9,598.8c-2.7,4-6,7.9-9.8,11.5c0,0-55.6,59.4-108-0.6l15.9-22.4c0,0,17.4,38.5,83.9,22.6
			c0.9-0.2,1.7-0.5,2.6-0.9c0,0,0,0,0,0C1209.8,608.9,1214.9,608.2,1224.9,598.8z"/>
	</g>
	<g>
		<path class="st1" d="M1025.8,388.8l-7.4,13.1c0,0-7.1-23.2-36.9-14.8c-0.4,0.1-0.8,0.3-1.2,0.5c0,0,0,0,0,0
			c-1.8,1-3.3,2.9-4.2,5.6c-2.2,6.4-3.8,20,2.1,47.4c0,0,2.8,13.4,1.3,18.4c-0.2,0.5-0.4,0.9-0.6,1.2l-7.5,9.2c0,0-1.4,1.9-4.9-1.9
			c0,0-7.3-8-13.7-13.3l0,0c0,0-3.1-2.7-5.9-1.3c0.3-0.5,0.6-0.9,0.9-1.2l8.9-10.1c0,0,6.7,1.8,12.2,8c0,0-8.4-33,4.3-56.2
			c1.3-2.3,2.8-4.6,4.5-6.7C977.9,386.7,1003.5,352.2,1025.8,388.8z"/>
		<path class="st2" d="M979.6,458.9c-0.2,0.5-0.4,0.9-0.6,1.2l-7.5,9.2c0,0-1.4,1.9-4.9-1.9c0,0-7.3-8-13.7-13.3l0,0
			c0,0-3.1-2.7-5.9-1.3c0.3-0.5,0.6-0.9,0.9-1.2l8.9-10.1c0,0,6.7,1.8,12.2,8C969.1,449.5,978.1,459.6,979.6,458.9z"/>
		<path class="st2" d="M973.4,393.3c1.3-2.3,2.8-4.6,4.5-6.7c0,0,25.6-34.4,47.9,2.1l-7.4,13.1c0,0-7.1-23.2-36.9-14.8
			c-0.4,0.1-0.8,0.3-1.2,0.5c0,0,0,0,0,0C980.2,387.6,978,387.9,973.4,393.3z"/>
	</g>
	<g>
		<path class="st5" d="M189.9,836.7l13.7,1.1c0,0,2.7,0.1,4.1,7.2c0,0,3.1,15,6.7,26.7c0,0,1.7,5.8,5.6,7.9c-0.6,0-1.2,0-1.7-0.1
			l-15.8-2c0,0-6.2-9.2-8.3-20.6c0,0-11.1,36.8-38.9,41.3c-8.3-0.9-11-3.2-11.1-3.3c2.5,1.2,5.3,1.3,7.9,0.2
			c6.3-2.8,16.3-12.1,26.7-41.4c0,0,5.1-14.3,9.8-16.6C189,836.7,189.4,836.6,189.9,836.7z"/>
		<path class="st6" d="M189.9,836.7l13.7,1.1c0,0,2.7,0.1,4.1,7.2c0,0,3.1,15,6.7,26.7c0,0,1.7,5.8,5.6,7.9c-0.6,0-1.2,0-1.7-0.1
			l-15.8-2c0,0-6.2-9.2-8.3-20.6c0,0-3.6-18.8-5.6-19.9C189,836.7,189.4,836.6,189.9,836.7z"/>
	</g>
	<g>
		<path class="st5" d="M1103.2,203.3l5.9-4.6c2.6-2,4.8-2.7,6.6-2.6c0,0,0,0,0,0c3.8,0.1,5.8,3.1,5.8,3.1c6.5,7.1,10.5,9.8,10.5,9.8
			c-7.2-16.6,0.8-22,0.8-22l7.7-6c0.5-0.4,1-0.7,1.5-0.9l0,0c5-2.4,12.1,0.4,12.1,0.4c21.7,7.4,31.3,2.4,31.3,2.4
			c6-13.9,1.2-33.2,1.2-33.2l11.7-8.3c8.6,28.5-13.9,46.1-13.9,46.1c-1.3,1.1-2.6,2-3.9,2.8c0,0,0,0,0,0c-2.1,1.3-4.3,2.3-6.4,3
			c-6.6,2.2-13.7,2-20.2-0.6c-6-2.3-14.3-4.6-14.3-4.6c-0.5,4.2,1.5,11,1.5,11c4.3,10.9,0.2,14.9,0.2,14.9l-8.5,7.1
			c-0.3,0.2-0.6,0.4-0.9,0.5c-4.2,1.7-10.2-5.7-10.2-5.7c-5.3-6.8-9.9-9.4-9.9-9.4c-0.8,2.3,0.6,18.8,0.6,18.8
			c1.6,11.7-3.2,15.1-3.2,15.1l-7.4,4.5c-0.6,0.3-1.2,0.5-1.8,0.5c2.3-1,1.1-13.8,1.1-13.8l-1-18.9
			C1099.7,204.8,1103.2,203.3,1103.2,203.3z"/>
		<path class="st6" d="M1186.5,149.6l11.7-8.3c8.6,28.5-13.9,46.1-13.9,46.1c-1.3,1.1-2.6,2-3.9,2.8c4.1-5.1,4.9-7.4,4.9-7.4
			C1191.4,168.8,1186.5,149.6,1186.5,149.6z"/>
		<path class="st6" d="M1132.8,186.9l7.7-6c0.5-0.4,1-0.7,1.5-0.9l0,0c-2.1,2.3-2.5,8-2.5,8c-0.5,4.2,1.5,11,1.5,11
			c4.3,10.9,0.2,14.9,0.2,14.9l-8.5,7.1c-0.3,0.2-0.6,0.4-0.9,0.5c3.5-2.5,0.2-12.5,0.2-12.5
			C1124.8,192.3,1132.8,186.9,1132.8,186.9z"/>
		<path class="st6" d="M1103.2,203.3l5.9-4.6c2.6-2,4.8-2.7,6.6-2.6c-4.5,1.8-4,10.3-4,10.3c-0.8,2.3,0.6,18.8,0.6,18.8
			c1.6,11.7-3.2,15.1-3.2,15.1l-7.4,4.5c-0.6,0.3-1.2,0.5-1.8,0.5c2.3-1,1.1-13.8,1.1-13.8l-1-18.9
			C1099.7,204.8,1103.2,203.3,1103.2,203.3z"/>
	</g>
	<g>
		<path class="st3" d="M966.4,846.8c12.4-5.7,35.2,5.9,35.2,5.9l-12.9-26.4c-4.9-11.2-0.8-16.2-0.8-16.2l5.8-11.6
			c2.5-5,5.3-7.8,7.9-9.3c0,0,0,0,0,0c5.4-3.1,10.2-0.4,10.2-0.4c13.7,4.8,21.1,5.4,21.1,5.4c-20.4-17.9-12.1-32.4-12.1-32.4l7.5-15
			c0.4-0.9,1-1.7,1.6-2.5l0,0c5.8-7.6,17.7-9.6,17.7-9.6c35.7-7.4,46.6-22.6,46.6-22.6c0.3-25.2-18.3-49-18.3-49l11.9-21.8
			c29.6,34,7.7,78.1,7.7,78.1c-1.2,2.6-2.5,5.1-3.9,7.4c0,0,0,0,0,0c-2.3,3.7-4.8,6.9-7.5,9.6c-8.2,8.8-18.6,14.2-29.6,16.1
			c-10.1,1.7-23.4,5.3-23.4,5.3c1.8,6.4,8.8,14.5,8.8,14.5c12.8,12.1,9.3,21.4,9.3,21.4l-8,17.3c-0.3,0.6-0.6,1-1,1.5
			c-5.1,5.9-18.2,0.3-18.2,0.3c-11.7-5.4-20-5.3-20-5.3c0.2,4,12.2,26.6,12.2,26.6c9.4,15.6,4.4,24.5,4.4,24.5l-8,12.7
			c-0.6,1-1.4,1.7-2.3,2.3c-5,3.3-12.9,0.3-12.9,0.3c-23.1-8.1-32.9-9.5-32.9-9.5S960.9,853.5,966.4,846.8z"/>
		<path class="st4" d="M1075.8,663l11.9-21.8c29.6,34,7.7,78.1,7.7,78.1c-1.2,2.6-2.5,5.1-3.9,7.4c2.8-10.7,2.6-14.8,2.6-14.8
			C1094.4,686.9,1075.8,663,1075.8,663z"/>
		<path class="st4" d="M1020.8,761.8l7.5-15c0.4-0.9,1-1.7,1.6-2.5l0,0c-1.6,5,1.2,13.6,1.2,13.6c1.8,6.4,8.8,14.5,8.8,14.5
			c12.8,12.1,9.3,21.4,9.3,21.4l-8,17.3c-0.3,0.6-0.6,1-1,1.5c3.5-6.5-7.3-18.2-7.3-18.2C1012.5,776.3,1020.8,761.8,1020.8,761.8z"
			/>
		<path class="st4" d="M987.9,810.2l5.8-11.6c2.5-5,5.3-7.8,7.9-9.3c-5.3,6.3,0.4,18.2,0.4,18.2c0.2,4,12.2,26.6,12.2,26.6
			c9.4,15.6,4.4,24.5,4.4,24.5l-8,12.7c-0.6,1-1.4,1.7-2.3,2.3c2.8-3.4-6.8-20.8-6.8-20.8l-12.9-26.4
			C983.8,815.2,987.9,810.2,987.9,810.2z"/>
	</g>
	<path class="st6" d="M1304.9,523.8c0,0,11.2-6.2,16.1-13.6c0,0,7-9.5,7.5-17.3l0,0c0.3,1.4,0.4,2.9,0.5,4.4l1,24.9
		c0,0,2.2,24.7-27.8,35.3c0,0-16.9,8.6-16.1,19.6c-0.2-0.8-0.3-1.7-0.4-2.6l-0.6-28.2C1285.2,546.2,1285.8,531.6,1304.9,523.8z"/>
	<path class="st3" d="M1307,273.6c0,0,7.4-8.2,10.3-16.4c0,0,4.2-10.7,4-18.5l0,0c0.3,1.4,0.5,2.8,0.7,4.2l2.6,24.4
		c0,0,3.3,23.9-16.9,40c0,0-11.2,11.6-9.9,22.3c-0.2-0.8-0.3-1.6-0.4-2.5l-2.5-27.7C1294.8,299.4,1294.1,284.9,1307,273.6z"/>
	<path class="st4" d="M1105,271c0,0,6.7,0.3,11.3-1.9c0,0,6.2-2.6,9.3-6.3l0,0c-0.4,0.8-0.9,1.6-1.4,2.3l-8.8,12.6
		c0,0-8.2,12.8-23.9,9.1c0,0-9.8-0.8-13.5,4.8c0.2-0.5,0.5-0.9,0.8-1.4l10.2-14.1C1089,276.2,1094.7,269.1,1105,271z"/>
	<path class="st4" d="M1153.4,145.4c0,0,6.7,0.3,11.3-1.9c0,0,6.2-2.6,9.3-6.3l0,0c-0.4,0.8-0.9,1.6-1.4,2.3l-8.8,12.6
		c0,0-8.2,12.8-23.9,9.1c0,0-9.8-0.8-13.5,4.8c0.2-0.5,0.5-0.9,0.8-1.4l10.2-14.1C1137.4,150.6,1143.1,143.5,1153.4,145.4z"/>
	<path class="st9" d="M1101,523.8c0,0,13.9-8.4,15.2-10.7c0,0,7-4.7,5.6-10.6c1.2,1.9,2,4.7,2.1,8.7l0.1,9.2c0,0,1,4.6-5.3,9.2
		l-15.6,10.3c0,0-10.9,6.4-10.2,9.6c-0.4-0.7-0.6-1.4-0.7-2.3l-1.1-10.8C1091.1,536.5,1090.7,529.2,1101,523.8z"/>
	<path class="st8" d="M981.8,720.3c0,0,15.6,1.8,17.8,0.7c0,0,8,0.5,9.6-5.4c0.1,2.4-0.5,5.3-2.3,8.6l-4.2,7.8c0,0-1.3,4.5-8.7,4.4
		l-17.9-1.2c0,0-12.1-1.5-13,1.5c0-0.8,0.2-1.6,0.4-2.4l4-9.8C967.6,724.7,970.6,718.3,981.8,720.3z"/>
	<path class="st2" d="M1025.6,265c0,0,15.3-3.8,17.1-5.6c0,0,7.8-2.4,7.8-8.5c0.7,2.2,0.9,5.2,0,9l-2,8.9c0,0,0,4.8-7.1,7.3
		l-17.3,5.1c0,0-12,2.8-12,6c-0.2-0.8-0.3-1.6-0.2-2.4l1.4-10.7C1013.2,274.1,1014.5,266.9,1025.6,265z"/>
	<path class="st4" d="M1211.5,367.8c0,0,15.6,1.8,17.8,0.7c0,0,8,0.5,9.6-5.4c0.1,2.4-0.5,5.3-2.3,8.6l-4.2,7.8c0,0-1.3,4.5-8.7,4.4
		l-17.9-1.2c0,0-12.1-1.5-13,1.5c0-0.8,0.2-1.6,0.4-2.4l4-9.8C1197.4,372.1,1200.4,365.7,1211.5,367.8z"/>
	<path class="st4" d="M398.3,129.4c0,0,12.4,9.6,14.8,9.8c0,0,6.6,4.6,11,0.4c-1.2,2.1-3.1,4.2-6.4,6.2l-7.6,4.5
		c0,0-3.4,3.2-9.7-0.7l-14.6-10.3c0,0-9.6-7.6-11.9-5.5c0.4-0.7,1-1.3,1.6-1.8l8.5-6.2C383.9,125.8,389.9,121.9,398.3,129.4z"/>
	<path class="st4" d="M1253.8,654.3c0,0,15.6,1.8,17.8,0.7c0,0,8,0.5,9.6-5.4c0.1,2.4-0.5,5.3-2.3,8.6l-4.2,7.8c0,0-1.3,4.5-8.7,4.4
		l-17.9-1.2c0,0-12.1-1.5-13,1.5c0-0.8,0.2-1.6,0.4-2.4l4-9.8C1239.6,658.7,1242.6,652.3,1253.8,654.3z"/>
	<g>
		<path class="st7" d="M113.1,736.5c0,0,5.4-5.1,7.1-9.5c0,0,2.5-5.8,1.7-9.4l0,0c0.4,0.6,0.7,1.2,1,1.9l4.4,11.2
			c0,0,5,10.8-10.4,21.8c0,0,5.3,0.2,15.2-2.1c0,0,3.5-1.5,7.1,1.1c0,0,0,0,0,0c1.8,1.2,3.5,3.4,5,7.2l3.4,8.7c0,0,2.6,3.8-1.5,11.3
			l-10.6,17.5c0,0,16.7-6.3,25.1-1.3c3.5,5.1,1.6,12.7,1.6,12.7s-7,0.3-23.7,4.1c0,0-5.7,1.5-9-1.3c-0.6-0.5-1.1-1-1.5-1.8l-4.9-9.6
			c0,0-3-6.7,4.5-16.9c0,0,9.8-14.9,10.2-17.7c0,0-5.9-0.8-14.4,2.1c0,0-9.5,2.9-12.8-1.7c-0.2-0.3-0.4-0.7-0.6-1.1l-4.6-12.8
			C105.3,750.8,103.4,744,113.1,736.5z"/>
		<path class="st8" d="M113.1,736.5c0,0,5.4-5.1,7.1-9.5c0,0,2.5-5.8,1.7-9.4l0,0c0.4,0.6,0.7,1.2,1,1.9l4.4,11.2
			c0,0,5,10.8-10.4,21.8c0,0-8.3,7.4-6.2,12.2c-0.2-0.3-0.4-0.7-0.6-1.1l-4.6-12.8C105.3,750.8,103.4,744,113.1,736.5z"/>
		<path class="st8" d="M147.4,767.3l-3.4-8.7c-1.5-3.7-3.3-5.9-5-7.2c3.4,4.9-1.3,12.8-1.3,12.8c-0.4,2.8-10.2,17.7-10.2,17.7
			c-7.5,10.2-4.5,16.9-4.5,16.9l4.9,9.6c0.4,0.7,0.9,1.3,1.5,1.8c-1.7-2.6,6-14.1,6-14.1l10.6-17.5
			C150,771.2,147.4,767.3,147.4,767.3z"/>
	</g>
	<g>
		<path class="st5" d="M810.9,847c0,0-4.3,6.4-5.1,11.1c0,0-1.4,6.3,0.1,9.6l0,0c-0.5-0.5-0.9-1-1.3-1.6l-6.3-9.8
			c0,0-6.9-9.3,6.1-24c0,0-5.2,1.2-14.4,5.9c0,0-3.1,2.4-7.2,0.8c0,0,0,0,0,0c-1.9-0.8-4.1-2.4-6.2-5.7l-4.9-7.6
			c0,0-3.3-3.1-0.6-11.4l7.1-19.8c0,0-15.1,10.5-24.3,7.8c-4.4-4.1-3.9-12-3.9-12s6.7-2,22.4-10c0,0,5.3-2.9,9-1.1
			c0.6,0.3,1.2,0.7,1.8,1.4l6.5,8.1c0,0,4.2,5.8-1.3,17.6c0,0-6.8,17.1-6.6,19.9c0,0,5.9-0.8,13.7-5.8c0,0,8.8-5.3,12.8-1.6
			c0.3,0.3,0.6,0.6,0.8,0.9l6.9,11.3C815.9,831.1,819,837.3,810.9,847z"/>
		<path class="st6" d="M810.9,847c0,0-4.3,6.4-5.1,11.1c0,0-1.4,6.3,0.1,9.6l0,0c-0.5-0.5-0.9-1-1.3-1.6l-6.3-9.8
			c0,0-6.9-9.3,6.1-24c0,0,6.7-9.3,3.8-13.5c0.3,0.3,0.6,0.6,0.8,0.9l6.9,11.3C815.9,831.1,819,837.3,810.9,847z"/>
		<path class="st6" d="M771.7,825.8l4.9,7.6c2.1,3.3,4.3,4.9,6.2,5.7c-4.2-3.9-1.1-12.8-1.1-12.8c-0.2-2.9,6.6-19.9,6.6-19.9
			c5.5-11.9,1.3-17.6,1.3-17.6l-6.5-8.1c-0.5-0.6-1.1-1.1-1.8-1.4c2.2,2.1-3.2,15.3-3.2,15.3l-7.1,19.8
			C768.4,822.7,771.7,825.8,771.7,825.8z"/>
	</g>
	<g>
		<path class="st3" d="M1083.4,359.9l16.6-21.1c1.5-1.8,3.3-3.1,5.3-4.1c14.8-6.7,41.9,7.4,41.9,7.4l-15.2-31.6
			c-5.8-13.4-0.9-19.3-0.9-19.3l6.9-13.8c3-6,6.3-9.3,9.5-11c0,0,0,0,0,0c6.5-3.6,12.1-0.4,12.1-0.4c16.2,5.8,25.1,6.6,25.1,6.6
			c-24.2-21.5-14.3-38.7-14.3-38.7l9-17.9c0.5-1.1,1.2-2.1,1.9-3l0,0c7-9,21.1-11.3,21.1-11.3c42.6-8.5,55.7-26.6,55.7-26.6
			s0.2,3.7-2.2,13.4c-1.2,2.6-2.4,5.2-3.5,7.8c-2.1,2.9-4.2,5.4-6.5,7.8c-9.9,10.4-22.2,16.8-35.3,18.9c-12,1.9-27.9,6.2-27.9,6.2
			c2.1,7.7,10.4,17.4,10.4,17.4c15.2,14.5,11,25.5,11,25.5l-9.6,20.5c-0.3,0.7-0.7,1.2-1.2,1.7c-6.1,7-21.7,0.3-21.7,0.3
			c-13.9-6.5-23.8-6.5-23.8-6.5c0.2,4.8,14.4,31.8,14.4,31.8c11.1,18.6,5.1,29.2,5.1,29.2l-9.6,15.1c-0.8,1.2-1.7,2-2.7,2.7
			c-6,3.9-15.3,0.3-15.3,0.3c-27.5-9.8-39.1-11.6-39.1-11.6c0.9,19.3,13.9,48.6,13.9,48.6c6.5,14.6,0.2,21.9,0.2,21.9l-13.9,14.5
			c-1,1-2.1,1.6-3.3,1.9c6.1-2.5-6.6-28.2-6.6-28.2l-9.7-29.3C1076.7,369.3,1083.4,359.9,1083.4,359.9z"/>
		<path class="st4" d="M1170.5,233.9l9-17.9c0.5-1.1,1.2-2.1,1.9-3l0,0c-2,6,1.4,16.2,1.4,16.2c2.1,7.7,10.4,17.4,10.4,17.4
			c15.2,14.5,11,25.5,11,25.5l-9.6,20.5c-0.3,0.7-0.7,1.2-1.2,1.7c4.2-7.7-8.6-21.8-8.6-21.8
			C1160.5,251.1,1170.5,233.9,1170.5,233.9z"/>
		<path class="st4" d="M1131.1,291.3l6.9-13.8c3-6,6.3-9.3,9.5-11c-6.4,7.5,0.4,21.7,0.4,21.7c0.2,4.8,14.4,31.8,14.4,31.8
			c11.1,18.6,5.1,29.2,5.1,29.2l-9.6,15.1c-0.8,1.2-1.7,2-2.7,2.7c3.3-4-7.9-24.9-7.9-24.9l-15.2-31.6
			C1126.2,297.1,1131.1,291.3,1131.1,291.3z"/>
		<path class="st4" d="M1083.4,359.9l16.6-21.1c1.5-1.8,3.3-3.1,5.3-4.1c-6.6,7.9-4.5,20.9-4.5,20.9c0.9,19.3,13.9,48.6,13.9,48.6
			c6.5,14.6,0.2,21.9,0.2,21.9l-13.9,14.5c-1,1-2.1,1.6-3.3,1.9c6.1-2.5-6.6-28.2-6.6-28.2l-9.7-29.3
			C1076.7,369.3,1083.4,359.9,1083.4,359.9z"/>
	</g>
	<g>
		<path class="st9" d="M153,574.4l-4.6,12.3c-2,5.3-4.3,8.4-6.6,10.1c0,0,0,0,0,0c-4.7,3.5-9,1.1-9,1.1c-12.3-3.9-18.9-4-18.9-4
			c18.8,16.9,12.2,32.3,12.2,32.3l-5.9,15.9c-0.4,1-0.8,1.9-1.3,2.7l0,0c-4.8,8.2-15.2,11.1-15.2,11.1
			c-31.2,10.1-40.1,26.5-40.1,26.5s-0.3-3.2,1.1-11.6c0.8-2.3,1.5-4.6,2.3-7c1.4-2.6,2.9-4.9,4.5-7.1c6.9-9.5,15.8-15.9,25.4-18.5
			c8.8-2.4,20.4-7.1,20.4-7.1c-1.9-6.4-8.4-14.2-8.4-14.2c-11.9-11.4-9.2-21.2-9.2-21.2l6.3-18.2c0.2-0.6,0.5-1.1,0.8-1.6
			c4.2-6.4,16-1.7,16-1.7c10.6,4.7,17.9,4,17.9,4c-0.4-4.1-12-26.3-12-26.3c-9-15.2-5-24.7-5-24.7l6.5-13.6c0.5-1,1.2-1.9,1.9-2.5
			c-2.3,3.7,6.9,20.8,6.9,20.8l12.6,26.1C156.4,569,153,574.4,153,574.4z"/>
		<path class="st10" d="M126.1,626.2l-5.9,15.9c-0.4,1-0.8,1.9-1.3,2.7l0,0c1.2-5.3-1.7-13.8-1.7-13.8c-1.9-6.4-8.4-14.2-8.4-14.2
			c-11.9-11.4-9.2-21.2-9.2-21.2l6.3-18.2c0.2-0.6,0.5-1.1,0.8-1.6c-2.8,6.9,7.3,18.1,7.3,18.1C132.8,610.8,126.1,626.2,126.1,626.2
			z"/>
		<path class="st10" d="M153,574.4l-4.6,12.3c-2,5.3-4.3,8.4-6.6,10.1c4.4-6.8-1.2-18.6-1.2-18.6c-0.4-4.1-12-26.3-12-26.3
			c-9-15.2-5-24.7-5-24.7l6.5-13.6c0.5-1,1.2-1.9,1.9-2.5c-2.3,3.7,6.9,20.8,6.9,20.8l12.6,26.1C156.4,569,153,574.4,153,574.4z"/>
	</g>
	<g>
		<path class="st1" d="M913.7,671.7c-11.3-45.5-53.4-47.8-53.4-47.8l4.1,16.7c33.8-0.5,46.5,31.3,46.5,31.3
			c5.4,21.8-21.1,51.8-21.1,51.8c-15.4,16.8-22.4,31.6-25.2,43c-3.9,15.5-0.3,24.9-0.3,24.9c9.6,38.5,66,37.9,66,37.9l-4-16
			c-48.2-0.1-57.9-24-57.9-24c-4.6-18.6,26.8-51.7,26.8-51.7c15.4-16.2,20.1-32.5,21-44.8C917.1,680.3,913.7,671.7,913.7,671.7z"/>
		<path class="st2" d="M913.7,671.7c-11.3-45.5-53.4-47.8-53.4-47.8l4.1,16.7c33.8-0.5,46.5,31.3,46.5,31.3s4.7,7.5,5.3,21.2
			C917.1,680.3,913.7,671.7,913.7,671.7z"/>
		<path class="st2" d="M930.3,829.5l-4-16c-48.2-0.1-57.9-24-57.9-24s-4.4-5.7-3.9-22.8c-3.9,15.5-0.3,24.9-0.3,24.9
			C873.8,830.1,930.3,829.5,930.3,829.5z"/>
	</g>
	<g>
		<path class="st5" d="M1183.7,842c0,0,0.6-6.7,3.7-16c0,0,0,0,0,0c5.1-15.1,16.9-36.8,44-47.4c0,0,34.3-10.5,43.7,20.1
			c0,0,0.5,10.3-3.4,19.4c0,0-7.5-29.4-43.5-19.2c0,0-30.4,10-42.8,43.4c0,0,0,0,0,0s-4.2,42.6,26.4,50.6l-3.2,20.3
			C1208.7,913.2,1174.9,905.4,1183.7,842z"/>
		<path class="st6" d="M1198.1,817.7c-0.1-1.2-0.2-2.4-0.3-3.5c-5-56.2,16.9-69.1,16.9-69.1l-2.7,19.1c-5.6,4.4-8.6,9.8-10.2,15.4
			c-3.9,13.7,1.4,28,1.4,28c11.4,40.3,46.4,29.5,46.4,29.5c16.8-6.6,22.1-19.1,22.1-19.1c3.9-9.1,3.4-19.4,3.4-19.4
			c0,0.1,0,0.2,0.1,0.3c4.7,22.8-2.6,37.2-10.6,45.8c-8.6,9.1-20,13.5-31.5,12.7c-13.5-0.9-21.9-8.6-27-16.5
			C1201.6,834.2,1199,826.1,1198.1,817.7z"/>
		<path class="st6" d="M1183.7,842c0,0,0.6-6.7,3.7-16c-1.6,7.7-2,15.8-2,16.3c0,0,0,0,0,0s-4.2,42.6,26.4,50.6l-3.2,20.3
			C1208.7,913.2,1174.9,905.4,1183.7,842z"/>
		<path class="st5" d="M1197.9,814.5l-0.1-0.4c-5-56.2,16.9-69.1,16.9-69.1l-2.7,19.1c-5.6,4.4-8.6,9.8-10.2,15.4l0,0
			C1201.8,779.7,1199.1,787.4,1197.9,814.5z"/>
	</g>
	<ellipse class="st4" cx="935.9" cy="647.6" rx="11.1" ry="13.1"/>
	<ellipse class="st4" cx="1148.7" cy="775.9" rx="11.1" ry="13.1"/>
	<ellipse class="st4" cx="1173.3" cy="567.1" rx="11.1" ry="13.1"/>
	<ellipse class="st8" cx="1154.1" cy="401.7" rx="11.1" ry="13.1"/>
	<ellipse class="st5" cx="1015.8" cy="439.7" rx="11.1" ry="13.1"/>
	<ellipse class="st5" cx="1277" cy="722.1" rx="11.1" ry="13.1"/>
	<ellipse class="st5" cx="1117.1" cy="119.3" rx="11.1" ry="13.1"/>
	<ellipse class="st4" cx="1061.1" cy="334.8" rx="11.1" ry="13.1"/>
	<polygon class="st5" points="841,691.5 874.5,707.3 850.9,718.6 	"/>
	<polygon class="st5" points="1308.5,409.3 1327.6,377.6 1336.4,402.2 	"/>
	<polygon class="st10" points="1295.9,121.1 1287.2,162.3 1274.5,136.3 	"/>
	<polygon class="st4" points="1073.9,460 1065.1,501.2 1052.4,475.3 	"/>
	<polygon class="st4" points="1241.9,296.1 1225.7,258.1 1249.7,268.1 	"/>
	<polygon class="st12" points="1197.3,715.5 1181.1,677.5 1205.2,687.5 	"/>
	<polygon class="st4" points="860.6,869.1 857.4,861.4 850.2,860.2 855.4,854.3 854.2,845.9 860.6,849.8 867,845.9 865.8,854.3 
		871,860.2 863.8,861.4 	"/>
	<polygon class="st4" points="894.4,513.9 891.2,506.2 884,505 889.2,499 888,490.6 894.4,494.6 900.8,490.6 899.6,499 904.8,505 
		897.6,506.2 	"/>
	<polygon class="st4" points="1206.9,119.3 1203.7,111.7 1196.5,110.5 1201.7,104.5 1200.5,96.1 1206.9,100.1 1213.3,96.1 
		1212.1,104.5 1217.3,110.5 1210.1,111.7 	"/>
	<polygon class="st4" points="1154.1,481.3 1150.9,473.7 1143.7,472.4 1148.9,466.5 1147.7,458.1 1154.1,462.1 1160.5,458.1 
		1159.3,466.5 1164.5,472.4 1157.3,473.7 	"/>
	<polygon class="st4" points="154.6,175.2 151.4,167.5 144.3,166.3 149.5,160.3 148.2,151.9 154.6,155.9 161.1,151.9 159.8,160.3 
		165,166.3 157.8,167.5 	"/>
	<polygon class="st6" points="1074.2,847.4 1071,839.7 1063.8,838.5 1069,832.6 1067.8,824.2 1074.2,828.1 1080.6,824.2 
		1079.4,832.6 1084.6,838.5 1077.4,839.7 	"/>
	<polygon class="st4" points="1284.7,621.4 1281.5,613.8 1274.4,612.5 1279.5,606.6 1278.3,598.2 1284.7,602.2 1291.1,598.2 
		1289.9,606.6 1295.1,612.5 1287.9,613.8 	"/>
	<polygon class="st6" points="1051.2,560.4 1048,552.8 1040.8,551.5 1046,545.6 1044.8,537.2 1051.2,541.1 1057.6,537.2 
		1056.4,545.6 1061.5,551.5 1054.4,552.8 	"/>
	<polygon class="st2" points="152.9,282 157,292 166.4,293.6 159.6,301.3 161.2,312.3 152.9,307.1 144.5,312.3 146.1,301.3 
		139.3,293.6 148.7,292 	"/>
</g>
</svg>
